<svg xmlns="http://www.w3.org/2000/svg" viewBox="0 0 1885 360.5">
  <path d="M61.5 88.3l2.1 24.7C78.1 94 98.2 84.4 123.7 84.4c21.9 0 38.3 6.6 49.1 19.7 10.8 13.1 16.4 32.8 16.8 59.1v135.6h-65.8V166c0-10.6-2.1-18.5-6.4-23.4 -4.3-5-12.1-7.5-23.3-7.5 -12.8 0-22.4 5.1-28.6 15.2v148.6H0V88.3H61.5zM313.1 302.7c-32.3 0-58.4-9.6-78.4-28.9 -20-19.3-30-44.3-30-75.2v-5.4c0-21.5 4-40.5 12-57 8-16.5 19.6-29.2 34.9-38.2 15.3-9 33.5-13.5 54.5-13.5 29.6 0 52.9 9.2 70 27.5 17.1 18.4 25.7 43.9 25.7 76.8v25.5H271.5c2.3 11.8 7.5 21.1 15.4 27.8 7.9 6.7 18.2 10.1 30.7 10.1 20.7 0 37-7.3 48.6-21.8l30 35.4c-8.2 11.3-19.7 20.3-34.7 26.9C346.5 299.4 330.3 302.7 313.1 302.7zM305.7 135c-19.2 0-30.6 12.7-34.2 38.1h66.1v-5.1c0.3-10.5-2.4-18.6-8-24.4C324 137.9 316.1 135 305.7 135zM595.2 212.5l21.2-124.1h62.8l-49.6 210.5h-55.4l-34.8-124.9 -35 124.9h-55.4L399.3 88.3h62.8l20.8 127 33.5-127h45.7L595.2 212.5zM798.2 239.7c0-5.6-2.9-10-8.8-13.4 -5.8-3.4-16.9-6.9-33.3-10.5 -16.3-3.6-29.8-8.4-40.5-14.3 -10.6-5.9-18.7-13.1-24.3-21.5 -5.6-8.4-8.4-18.1-8.4-29 0-19.3 8-35.2 23.9-47.8 16-12.5 36.8-18.8 62.6-18.8 27.8 0 50.1 6.3 66.9 18.9 16.9 12.6 25.3 29.1 25.3 49.6h-65.8c0-16.9-8.9-25.3-26.7-25.3 -6.9 0-12.6 1.9-17.3 5.7 -4.7 3.8-7 8.6-7 14.3 0 5.8 2.9 10.6 8.6 14.2 5.7 3.6 14.8 6.6 27.3 8.9 12.5 2.3 23.5 5.1 33 8.4 31.6 10.9 47.5 30.4 47.5 58.6 0 19.2-8.5 34.8-25.6 46.9 -17.1 12.1-39.1 18.1-66.2 18.1 -18 0-34.1-3.2-48.3-9.7 -14.1-6.5-25.2-15.3-33.1-26.5 -7.9-11.2-11.9-22.9-11.9-35.2h61.3c0.3 9.7 3.5 16.8 9.7 21.3 6.2 4.5 14.2 6.7 23.9 6.7 8.9 0 15.7-1.8 20.1-5.4C796 250.3 798.2 245.5 798.2 239.7zM941.4 110.9c14-17.6 31.9-26.5 53.7-26.5 23.2 0 40.7 6.9 52.5 20.6 11.8 13.8 17.8 34 18.1 60.9v132.9H1000V167.5c0-11.2-2.3-19.4-6.8-24.6 -4.5-5.2-12.3-7.9-23.2-7.9 -13.5 0-23 4.3-28.6 12.8v151h-65.6V0h65.6V110.9zM1079.2 191.6c0-21 4.1-39.7 12.3-56.1 8.2-16.4 19.9-29 35.2-37.8 15.3-8.8 33.3-13.2 53.9-13.2 31.5 0 56.4 9.8 74.5 29.3 18.2 19.5 27.2 46.1 27.2 79.7v2.3c0 32.8-9.1 58.9-27.3 78.1 -18.2 19.3-42.9 28.9-74 28.9 -30 0-54-9-72.2-26.9 -18.2-18-28-42.3-29.4-73.1L1079.2 191.6zM1144.8 195.7c0 19.5 3 33.7 9.1 42.8 6.1 9.1 15.1 13.6 27 13.6 23.3 0 35.3-18 35.8-53.9v-6.6c0-37.7-12.1-56.6-36.2-56.6 -21.9 0-33.8 16.3-35.6 48.8L1144.8 195.7zM1423.8 147.7l-21.6-1.6c-20.6 0-33.9 6.5-39.7 19.5v133.3H1297V88.3h61.5l2.1 27c11-20.6 26.4-30.9 46.1-30.9 7 0 13.1 0.8 18.3 2.3L1423.8 147.7zM1534.6 302.7c-32.3 0-58.4-9.6-78.4-28.9 -20-19.3-30-44.3-30-75.2v-5.4c0-21.5 4-40.5 12-57 8-16.5 19.6-29.2 34.9-38.2 15.3-9 33.5-13.5 54.5-13.5 29.6 0 52.9 9.2 70 27.5 17.1 18.4 25.7 43.9 25.7 76.8v25.5H1493c2.3 11.8 7.5 21.1 15.4 27.8 7.9 6.7 18.2 10.1 30.7 10.1 20.7 0 37-7.3 48.6-21.8l30 35.4c-8.2 11.3-19.7 20.3-34.7 26.9C1568 299.4 1551.8 302.7 1534.6 302.7zM1527.2 135c-19.2 0-30.6 12.7-34.2 38.1h66.2v-5.1c0.3-10.5-2.4-18.6-8-24.4C1545.6 137.9 1537.6 135 1527.2 135zM1885 360.5h-267.3v-29.4H1885V360.5z"  fill="#38384A"/>
</svg>
